<svg width="20" height="20" viewBox="0 0 20 20" fill="none" xmlns="http://www.w3.org/2000/svg">
<path d="M6.81698 4.67337C7.40296 4.08739 8.35301 4.08739 8.93898 4.67337L13.183 8.91736C13.769 9.50334 13.769 10.4534 13.183 11.0394C12.597 11.6253 11.647 11.6253 11.061 11.0394L6.81698 6.79537C6.23101 6.20939 6.23101 5.25934 6.81698 4.67337Z" fill="#696969"/>
<path d="M6.81703 15.3267C6.23105 14.7408 6.23105 13.7907 6.81703 13.2047L11.061 8.96074C11.647 8.37477 12.597 8.37477 13.183 8.96074C13.769 9.54671 13.769 10.4968 13.183 11.0827L8.93903 15.3267C8.35305 15.9127 7.403 15.9127 6.81703 15.3267Z" fill="#696969"/>
</svg>
