<svg width="20" height="20" viewBox="0 0 20 20" fill="none" xmlns="http://www.w3.org/2000/svg">
<path d="M10.75 7.23572C10.75 6.40729 11.4216 5.73572 12.25 5.73572H16.75C17.5784 5.73572 18.25 6.40729 18.25 7.23572C18.25 8.06414 17.5784 8.73572 16.75 8.73572H12.25C11.4216 8.73572 10.75 8.06414 10.75 7.23572Z" fill="#696969"/>
<path d="M10.75 13.2357C10.75 12.4073 11.4216 11.7357 12.25 11.7357H16.75C17.5784 11.7357 18.25 12.4073 18.25 13.2357C18.25 14.0641 17.5784 14.7357 16.75 14.7357H12.25C11.4216 14.7357 10.75 14.0641 10.75 13.2357Z" fill="#696969"/>
<path d="M2.18934 4.67506C2.77513 4.08927 3.72487 4.08927 4.31066 4.67506L8.5533 8.9177C9.13909 9.50348 9.13909 10.4532 8.5533 11.039C7.96751 11.6248 7.01777 11.6248 6.43198 11.039L2.18934 6.79638C1.60355 6.21059 1.60355 5.26084 2.18934 4.67506Z" fill="#696969"/>
<path d="M2.18938 15.325C1.6036 14.7392 1.6036 13.7895 2.18938 13.2037L6.43202 8.96106C7.01781 8.37527 7.96756 8.37527 8.55334 8.96106C9.13913 9.54685 9.13913 10.4966 8.55334 11.0824L4.3107 15.325C3.72492 15.9108 2.77517 15.9108 2.18938 15.325Z" fill="#696969"/>
</svg>
