<svg width="20" height="20" viewBox="0 0 20 20" fill="none" xmlns="http://www.w3.org/2000/svg">
<path d="M10.75 7.23571C10.75 6.40729 11.4216 5.73571 12.25 5.73571H16.75C17.5784 5.73571 18.25 6.40729 18.25 7.23571C18.25 8.06414 17.5784 8.73571 16.75 8.73571H12.25C11.4216 8.73571 10.75 8.06414 10.75 7.23571Z" fill="#696969"/>
<path d="M10.75 13.2357C10.75 12.4073 11.4216 11.7357 12.25 11.7357H16.75C17.5784 11.7357 18.25 12.4073 18.25 13.2357C18.25 14.0641 17.5784 14.7357 16.75 14.7357H12.25C11.4216 14.7357 10.75 14.0641 10.75 13.2357Z" fill="#696969"/>
<path d="M8.55333 4.67506C7.96754 4.08927 7.0178 4.08927 6.43201 4.67506L2.18938 8.91769C1.6036 9.50347 1.6036 10.4532 2.18938 11.039C2.77517 11.6248 3.72491 11.6248 4.3107 11.039L8.55333 6.79637C9.13911 6.21059 9.13911 5.26084 8.55333 4.67506Z" fill="#696969"/>
<path d="M8.55328 15.325C9.13907 14.7392 9.13907 13.7895 8.55328 13.2037L4.31065 8.96105C3.72487 8.37526 2.77512 8.37526 2.18934 8.96105C1.60355 9.54683 1.60355 10.4966 2.18934 11.0824L6.43197 15.325C7.01775 15.9108 7.9675 15.9108 8.55328 15.325Z" fill="#696969"/>
</svg>
