<svg width="20" height="20" viewBox="0 0 20 20" fill="none" xmlns="http://www.w3.org/2000/svg">
<rect width="2.85713" height="5.71428" rx="1.42857" transform="matrix(0.66916 0.743118 0.743131 -0.669145 7.0614 10.8851)" fill="#02C6D2"/>
<mask id="mask0_461_3749" style="mask-type:alpha" maskUnits="userSpaceOnUse" x="2" y="4" width="14" height="14">
<path fill-rule="evenodd" clip-rule="evenodd" d="M4.30174 15.2925C6.6775 17.9309 10.7423 18.1437 13.3806 15.768C16.019 13.3922 16.2319 9.32745 13.8561 6.68907C11.4804 4.05069 7.41562 3.8378 4.77724 6.21357C2.13886 8.58934 1.92597 12.6541 4.30174 15.2925ZM6.42494 13.3806C7.74481 14.8464 10.003 14.9647 11.4688 13.6448C12.9345 12.3249 13.0528 10.0667 11.7329 8.60094C10.4131 7.13518 8.15487 7.0169 6.68911 8.33677C5.22334 9.65664 5.10507 11.9148 6.42494 13.3806Z" fill="#D9D9D9"/>
</mask>
<g mask="url(#mask0_461_3749)">
<rect width="20" height="8.5714" transform="matrix(0.669143 0.743133 -0.743119 0.66916 2.33453 4.56812)" fill="#02C6D2"/>
</g>
<mask id="mask1_461_3749" style="mask-type:alpha" maskUnits="userSpaceOnUse" x="4" y="2" width="14" height="14">
<path fill-rule="evenodd" clip-rule="evenodd" d="M15.9795 4.77722C13.6037 2.13884 9.53892 1.92595 6.90054 4.30172C4.26216 6.67748 4.04927 10.7423 6.42504 13.3806C8.80081 16.019 12.8656 16.2319 15.504 13.8561C18.1423 11.4804 18.3552 7.4156 15.9795 4.77722ZM13.8562 6.68909C12.5364 5.22332 10.2782 5.10505 8.81241 6.42492C7.34664 7.74479 7.22837 10.003 8.54824 11.4688C9.86811 12.9345 12.1263 13.0528 13.5921 11.7329C15.0578 10.4131 15.1761 8.15485 13.8562 6.68909Z" fill="#D9D9D9"/>
</mask>
<g mask="url(#mask1_461_3749)">
<rect width="20" height="8.5714" transform="matrix(-0.669143 -0.743133 0.743119 -0.66916 17.9467 15.5016)" fill="#02C6D2"/>
</g>
</svg>
