<svg width="166" height="166" viewBox="0 0 166 166" fill="none" xmlns="http://www.w3.org/2000/svg">
<circle cx="83" cy="83" r="83" fill="#161817" fill-opacity="0.71"/>
<circle cx="82.5" cy="83.5" r="77.5" fill="#C4C601" fill-opacity="0.65"/>
<circle cx="82.5001" cy="83.5" r="71.8355" fill="#161817" fill-opacity="0.71"/>
<circle cx="82.5" cy="83.5" r="68.7458" fill="#C4C601" fill-opacity="0.9"/>
<circle cx="82.5" cy="83.5" r="62.5664" fill="#161817" fill-opacity="0.71"/>
<circle cx="82.5" cy="83.5" r="59.9917" fill="#C4C601"/>
<circle cx="82.5" cy="114.5" r="3.5" fill="black"/>
<circle cx="82.5" cy="114.5" r="2.5" fill="#C4C601"/>
<path d="M90.3233 119.98L90.349 119.98C91.2862 120.007 92.0251 120.801 91.9993 121.755V126.576C91.9779 128.082 91.256 130.909 88.6722 130.909H88.6364C88.6364 130.909 87.1426 131 85.4201 131C84.8733 131 84.3015 130.993 83.744 130.967C83.0971 130.942 81.5175 130.665 80.5276 128.682L77.3791 122.381C76.7997 121.654 76.8948 120.589 77.5935 119.98C78.3411 119.408 79.402 119.559 79.9665 120.318L80.7813 121.435V117.59V117.374L80.767 114.995C80.7672 114.014 81.5481 113.22 82.5113 113.22C83.4745 113.22 84.2551 114.015 84.255 114.996V116.735L84.2693 117.59V118.47C84.5383 118.267 84.8639 118.158 85.1985 118.157C85.9823 118.185 86.6411 118.765 86.7817 119.551C87.0557 119.321 87.3985 119.192 87.7537 119.187C88.4677 119.203 89.0906 119.684 89.2976 120.38C89.5811 120.125 89.9452 119.983 90.3233 119.98Z" fill="#11100E"/>
<path d="M79.0469 38.9697H74.2559V52H71.0332V38.9697H66.3066V36.3594H79.0469V38.9697ZM84.3213 52H81.0986V36.3594H84.3213V52ZM90.541 46.4893V52H87.3184V36.3594H93.4199C94.5944 36.3594 95.6257 36.5742 96.5137 37.0039C97.4089 37.4336 98.0964 38.0459 98.5762 38.8408C99.056 39.6286 99.2959 40.5273 99.2959 41.5371C99.2959 43.0697 98.7695 44.2799 97.7168 45.168C96.6712 46.0488 95.221 46.4893 93.3662 46.4893H90.541ZM90.541 43.8789H93.4199C94.2721 43.8789 94.9202 43.6784 95.3643 43.2773C95.8154 42.8763 96.041 42.3034 96.041 41.5586C96.041 40.7923 95.8154 40.1729 95.3643 39.7002C94.9131 39.2275 94.29 38.984 93.4951 38.9697H90.541V43.8789ZM62.6221 66.959H59.3457L58.6099 69H57.5464L60.5327 61.1797H61.4351L64.4268 69H63.3687L62.6221 66.959ZM59.6572 66.1104H62.3159L60.9839 62.4526L59.6572 66.1104ZM71.4897 69H70.4531L66.5161 62.9736V69H65.4795V61.1797H66.5161L70.4639 67.2329V61.1797H71.4897V69ZM73.3213 69V61.1797H75.5288C76.2091 61.1797 76.8107 61.3301 77.3335 61.6309C77.8563 61.9316 78.2591 62.3595 78.542 62.9146C78.8285 63.4696 78.9735 64.1069 78.9771 64.8267V65.3262C78.9771 66.0638 78.8338 66.7101 78.5474 67.2651C78.2645 67.8201 77.8581 68.2463 77.3281 68.5435C76.8018 68.8407 76.1877 68.9928 75.4858 69H73.3213ZM74.3525 62.0283V68.1567H75.4375C76.2324 68.1567 76.8501 67.9097 77.2905 67.4155C77.7345 66.9214 77.9565 66.2178 77.9565 65.3047V64.8481C77.9565 63.9601 77.7471 63.2708 77.3281 62.7803C76.9128 62.2861 76.3219 62.0355 75.5557 62.0283H74.3525ZM84.2998 65.9385V69H83.2686V61.1797H86.1528C87.0086 61.1797 87.6782 61.3981 88.1616 61.835C88.6486 62.2718 88.8921 62.8501 88.8921 63.5698C88.8921 64.3289 88.654 64.9144 88.1777 65.3262C87.7051 65.7344 87.0265 65.9385 86.1421 65.9385H84.2998ZM84.2998 65.0952H86.1528C86.7043 65.0952 87.1268 64.9663 87.4204 64.7085C87.714 64.4471 87.8608 64.0711 87.8608 63.5806C87.8608 63.1151 87.714 62.7427 87.4204 62.4634C87.1268 62.1841 86.724 62.0391 86.2119 62.0283H84.2998V65.0952ZM91.2446 68.1567H94.9507V69H90.208V61.1797H91.2446V68.1567ZM100.553 66.959H97.2764L96.5405 69H95.4771L98.4634 61.1797H99.3657L102.357 69H101.299L100.553 66.959ZM97.5879 66.1104H100.247L98.9146 62.4526L97.5879 66.1104ZM105.29 65.106L107.331 61.1797H108.502L105.806 66.0835V69H104.774V66.0835L102.078 61.1797H103.26L105.29 65.106Z" fill="black"/>
</svg>
