<svg width="156" height="155" viewBox="0 0 156 155" fill="none" xmlns="http://www.w3.org/2000/svg">
<circle cx="77.5635" cy="77.5" r="77.5" fill="#C4C601" fill-opacity="0.65"/>
<circle cx="77.5636" cy="77.5" r="71.8355" fill="#161817"/>
<circle cx="77.5635" cy="77.5" r="68.7458" fill="#C4C601" fill-opacity="0.9"/>
<circle cx="77.5635" cy="77.5" r="62.5664" fill="#161817"/>
<circle cx="77.5635" cy="77.5" r="59.9917" fill="#C4C601"/>
<circle cx="77.5635" cy="107.5" r="3.5" fill="black"/>
<circle cx="77.5635" cy="107.5" r="2.5" fill="#C4C601"/>
<path d="M85.3867 112.98L85.4125 112.98C86.3497 113.007 87.0886 113.801 87.0628 114.755V119.576C87.0414 121.082 86.3195 123.909 83.7357 123.909H83.6999C83.6999 123.909 82.2061 124 80.4835 124C79.9367 124 79.3649 123.993 78.8074 123.967C78.1606 123.942 76.581 123.665 75.5911 121.682L72.4426 115.381C71.8632 114.654 71.9583 113.589 72.657 112.98C73.4045 112.408 74.4655 112.559 75.03 113.318L75.8448 114.435V110.59V110.374L75.8305 107.995C75.8306 107.014 76.6115 106.22 77.5748 106.22C78.5379 106.22 79.3186 107.015 79.3185 107.996V109.735L79.3328 110.59V111.47C79.6018 111.267 79.9274 111.158 80.262 111.157C81.0457 111.185 81.7046 111.765 81.8451 112.551C82.1192 112.321 82.462 112.192 82.8172 112.187C83.5312 112.203 84.1541 112.684 84.3611 113.38C84.6446 113.125 85.0087 112.983 85.3867 112.98Z" fill="#11100E"/>
<path d="M74.1104 55.9697H69.3193V69H66.0967V55.9697H61.3701V53.3594H74.1104V55.9697ZM79.3848 69H76.1621V53.3594H79.3848V69ZM85.6045 63.4893V69H82.3818V53.3594H88.4834C89.6579 53.3594 90.6891 53.5742 91.5771 54.0039C92.4723 54.4336 93.1598 55.0459 93.6396 55.8408C94.1195 56.6286 94.3594 57.5273 94.3594 58.5371C94.3594 60.0697 93.833 61.2799 92.7803 62.168C91.7347 63.0488 90.2845 63.4893 88.4297 63.4893H85.6045ZM85.6045 60.8789H88.4834C89.3356 60.8789 89.9837 60.6784 90.4277 60.2773C90.8789 59.8763 91.1045 59.3034 91.1045 58.5586C91.1045 57.7923 90.8789 57.1729 90.4277 56.7002C89.9766 56.2275 89.3535 55.984 88.5586 55.9697H85.6045V60.8789ZM57.6855 83.959H54.4092L53.6733 86H52.6099L55.5962 78.1797H56.4985L59.4902 86H58.4321L57.6855 83.959ZM54.7207 83.1104H57.3794L56.0474 79.4526L54.7207 83.1104ZM66.5532 86H65.5166L61.5796 79.9736V86H60.543V78.1797H61.5796L65.5273 84.2329V78.1797H66.5532V86ZM68.3848 86V78.1797H70.5923C71.2726 78.1797 71.8742 78.3301 72.397 78.6309C72.9198 78.9316 73.3226 79.3595 73.6055 79.9146C73.8919 80.4696 74.0369 81.1069 74.0405 81.8267V82.3262C74.0405 83.0638 73.8973 83.7101 73.6108 84.2651C73.328 84.8201 72.9215 85.2463 72.3916 85.5435C71.8652 85.8407 71.2511 85.9928 70.5493 86H68.3848ZM69.416 79.0283V85.1567H70.501C71.2959 85.1567 71.9136 84.9097 72.354 84.4155C72.798 83.9214 73.02 83.2178 73.02 82.3047V81.8481C73.02 80.9601 72.8105 80.2708 72.3916 79.7803C71.9762 79.2861 71.3854 79.0355 70.6191 79.0283H69.416ZM79.3633 82.9385V86H78.332V78.1797H81.2163C82.0721 78.1797 82.7417 78.3981 83.2251 78.835C83.7121 79.2718 83.9556 79.8501 83.9556 80.5698C83.9556 81.3289 83.7174 81.9144 83.2412 82.3262C82.7686 82.7344 82.09 82.9385 81.2056 82.9385H79.3633ZM79.3633 82.0952H81.2163C81.7677 82.0952 82.1903 81.9663 82.4839 81.7085C82.7775 81.4471 82.9243 81.0711 82.9243 80.5806C82.9243 80.1151 82.7775 79.7427 82.4839 79.4634C82.1903 79.1841 81.7874 79.0391 81.2754 79.0283H79.3633V82.0952ZM86.3081 85.1567H90.0142V86H85.2715V78.1797H86.3081V85.1567ZM95.6162 83.959H92.3398L91.604 86H90.5405L93.5269 78.1797H94.4292L97.4209 86H96.3628L95.6162 83.959ZM92.6514 83.1104H95.3101L93.978 79.4526L92.6514 83.1104ZM100.354 82.106L102.395 78.1797H103.565L100.869 83.0835V86H99.8379V83.0835L97.1416 78.1797H98.3232L100.354 82.106Z" fill="black"/>
</svg>
