<svg width="20" height="20" viewBox="0 0 20 20" fill="none" xmlns="http://www.w3.org/2000/svg">
<path d="M13.183 4.67337C12.597 4.08739 11.647 4.08739 11.061 4.67337L6.81703 8.91736C6.23105 9.50334 6.23105 10.4534 6.81703 11.0394C7.403 11.6253 8.35305 11.6253 8.93902 11.0394L13.183 6.79537C13.769 6.20939 13.769 5.25934 13.183 4.67337Z" fill="#696969"/>
<path d="M13.183 15.3267C13.769 14.7408 13.769 13.7907 13.183 13.2047L8.93898 8.96074C8.35301 8.37477 7.40296 8.37477 6.81698 8.96074C6.23101 9.54671 6.23101 10.4968 6.81698 11.0827L11.061 15.3267C11.647 15.9127 12.597 15.9127 13.183 15.3267Z" fill="#696969"/>
</svg>
