<svg width="16" height="16" viewBox="0 0 16 16" fill="none" xmlns="http://www.w3.org/2000/svg">
<g clip-path="url(#clip0_502_11512)">
<rect x="5" y="15" width="6" height="1" fill="#B0B0B0"/>
<rect x="7" y="13" width="2" height="2" fill="#B0B0B0"/>
<path d="M2 10H14L9 13H7L2 10Z" fill="#B0B0B0"/>
<path fill-rule="evenodd" clip-rule="evenodd" d="M16 6C16 7.10457 15.1046 8 14 8V7C14.5523 7 15 6.55228 15 6C15 5.44772 14.5523 5 14 5V4C15.1046 4 16 4.89543 16 6Z" fill="#B0B0B0"/>
<path fill-rule="evenodd" clip-rule="evenodd" d="M0 6C0 7.10457 0.895431 8 2 8V7C1.44772 7 1 6.55228 1 6C1 5.44772 1.44772 5 2 5V4C0.895431 4 0 4.89543 0 6Z" fill="#B0B0B0"/>
<path fill-rule="evenodd" clip-rule="evenodd" d="M14 0H2V10H14V0ZM8 9C9.933 9 11.5 7.433 11.5 5.5C11.5 3.567 9.933 2 8 2C6.067 2 4.5 3.567 4.5 5.5C4.5 7.433 6.067 9 8 9Z" fill="#B0B0B0"/>
<rect x="7.5" y="3" width="1" height="5" fill="#B0B0B0"/>
<rect x="7" y="3" width="1" height="1" fill="#B0B0B0"/>
</g>
<defs>
<clipPath id="clip0_502_11512">
<rect width="16" height="16" fill="white"/>
</clipPath>
</defs>
</svg>
