<svg width="66" height="60" viewBox="0 0 66 60" fill="none" xmlns="http://www.w3.org/2000/svg">
<path fill-rule="evenodd" clip-rule="evenodd" d="M3.5 8.5C3.5 4.08173 7.08167 0.5 11.5 0.5H54.5C58.9183 0.5 62.5 4.08173 62.5 8.5V51.5C62.5 55.9183 58.9183 59.5 54.5 59.5H11.5C7.08167 59.5 3.5 55.9183 3.5 51.5V8.5ZM15.962 16.9275C15.3459 17.3207 15.3459 18.2204 15.962 18.6135L27.3531 25.8824C28.0188 26.3072 28.891 25.829 28.891 25.0394V21.2705H50.641C51.1934 21.2705 51.641 20.8228 51.641 20.2705V15.2705C51.641 14.7182 51.1934 14.2705 50.641 14.2705H28.891V10.5016C28.891 9.71198 28.0188 9.23386 27.3531 9.65863L15.962 16.9275ZM51.3199 42.384C51.936 41.9909 51.936 41.0912 51.3199 40.698L39.9288 33.4291C39.2632 33.0044 38.391 33.4825 38.391 34.2721V38.041H16.641C16.0886 38.041 15.641 38.4887 15.641 39.041V44.041C15.641 44.5933 16.0886 45.041 16.641 45.041H38.391V48.8099C38.391 49.5995 39.2632 50.0777 39.9288 49.6529L51.3199 42.384Z" fill="#696969"/>
</svg>
