<svg width="16" height="16" viewBox="0 0 16 16" fill="none" xmlns="http://www.w3.org/2000/svg">
<g clip-path="url(#clip0_502_11503)">
<path fill-rule="evenodd" clip-rule="evenodd" d="M8.36564 0.249292C8.17301 -0.083097 7.69307 -0.0830973 7.50043 0.249291L6.63625 1.74045C6.49812 1.97881 6.19319 2.06052 5.95438 1.92317L4.46918 1.069C4.13692 0.877908 3.72204 1.11636 3.71991 1.49964L3.71023 3.23812C3.7087 3.51207 3.48702 3.73378 3.21307 3.73533L1.49495 3.74508C1.11344 3.74724 0.874813 4.1587 1.06241 4.49092L1.91963 6.00897C2.05357 6.24617 1.97299 6.54694 1.7384 6.68541L0.245845 7.56639C-0.0819485 7.75988 -0.0819483 8.23409 0.245845 8.42757L1.7384 9.30855C1.97299 9.44702 2.05357 9.74779 1.91963 9.98499L1.06241 11.503C0.874813 11.8353 1.11344 12.2467 1.49495 12.2489L3.21307 12.2586C3.48702 12.2602 3.7087 12.4819 3.71023 12.7558L3.71991 14.4943C3.72204 14.8776 4.13692 15.1161 4.46918 14.925L5.95437 14.0708C6.19319 13.9334 6.49812 14.0151 6.63625 14.2535L7.50043 15.7447C7.69307 16.0771 8.17301 16.0771 8.36564 15.7447L9.22982 14.2535C9.36796 14.0151 9.67288 13.9334 9.9117 14.0708L11.3969 14.925C11.7292 15.1161 12.144 14.8776 12.1462 14.4943L12.1558 12.7558C12.1574 12.4819 12.3791 12.2602 12.653 12.2586L14.3711 12.2489C14.7526 12.2467 14.9913 11.8353 14.8037 11.503L13.9464 9.98499C13.8125 9.74779 13.8931 9.44702 14.1277 9.30855L15.6202 8.42757C15.948 8.23409 15.948 7.75988 15.6202 7.56639L14.1277 6.68541C13.8931 6.54694 13.8125 6.24617 13.9464 6.00897L14.8037 4.49092C14.9913 4.1587 14.7526 3.74724 14.3711 3.74508L12.653 3.73533C12.3791 3.73378 12.1574 3.51207 12.1558 3.23812L12.1462 1.49964C12.144 1.11636 11.7292 0.877907 11.3969 1.069L9.9117 1.92317C9.67288 2.06052 9.36796 1.97881 9.22982 1.74045L8.36564 0.249292ZM7.94977 11.4134C9.86085 11.4134 11.4101 9.86246 11.4101 7.94929C11.4101 6.03613 9.86085 4.48521 7.94977 4.48521C6.03869 4.48521 4.48945 6.03613 4.48945 7.94929C4.48945 9.86246 6.03869 11.4134 7.94977 11.4134Z" fill="#B0B0B0"/>
</g>
<defs>
<clipPath id="clip0_502_11503">
<rect width="16" height="16" fill="white"/>
</clipPath>
</defs>
</svg>
