<svg width="20" height="20" viewBox="0 0 20 20" fill="none" xmlns="http://www.w3.org/2000/svg">
<path fill-rule="evenodd" clip-rule="evenodd" d="M9.9524 0.904785C4.95554 0.904785 0.904785 4.95554 0.904785 9.9524C0.904785 14.9493 4.95554 19 9.9524 19C14.9493 19 19 14.9493 19 9.9524C19 4.95554 14.9493 0.904785 9.9524 0.904785ZM9.9524 3.92061C6.62116 3.92061 3.92065 6.62111 3.92065 9.95235C3.92065 13.2836 6.62116 15.9841 9.9524 15.9841C13.2836 15.9841 15.9841 13.2836 15.9841 9.95235C15.9841 6.62111 13.2836 3.92061 9.9524 3.92061Z" fill="#9CD202"/>
<rect x="8.44446" y="8.44434" width="6.03175" height="3.01587" rx="1.50794" fill="#9CD202"/>
<rect x="8.44446" y="10.7063" width="6.03175" height="3.01587" rx="1.50794" transform="rotate(-90 8.44446 10.7063)" fill="#9CD202"/>
</svg>
