<svg width="20" height="20" viewBox="0 0 20 20" fill="none" xmlns="http://www.w3.org/2000/svg">
<path fill-rule="evenodd" clip-rule="evenodd" d="M9.04768 16.3634C8.73661 16.4064 8.41862 16.4286 8.09526 16.4286C4.41336 16.4286 1.42859 13.5504 1.42859 9.99998C1.42859 6.44958 4.41336 3.57141 8.09526 3.57141C8.41862 3.57141 8.73661 3.59361 9.04768 3.63652V5.50001C8.73995 5.43978 8.42144 5.40816 8.09527 5.40816C5.46534 5.40816 3.33336 7.46399 3.33336 9.99999C3.33336 12.536 5.46534 14.5918 8.09527 14.5918C8.42144 14.5918 8.73995 14.5602 9.04768 14.5V16.3634Z" fill="#BCA902"/>
<path fill-rule="evenodd" clip-rule="evenodd" d="M10.9524 16.3635C10.6414 16.4064 10.3234 16.4286 10 16.4286C6.31814 16.4286 3.33337 13.5504 3.33337 9.99998C3.33337 6.44958 6.31814 3.57141 10 3.57141C10.3234 3.57141 10.6414 3.59361 10.9524 3.63651V5.5C10.6447 5.43977 10.3262 5.40816 10.0001 5.40816C7.37016 5.40816 5.23819 7.46399 5.23819 9.99999C5.23819 12.536 7.37016 14.5918 10.0001 14.5918C10.3262 14.5918 10.6447 14.5602 10.9524 14.5V16.3635Z" fill="#C4B000"/>
<path fill-rule="evenodd" clip-rule="evenodd" d="M11.9048 16.4286C15.5867 16.4286 18.5715 13.5504 18.5715 9.99998C18.5715 6.44958 15.5867 3.57141 11.9048 3.57141C8.22293 3.57141 5.23816 6.44958 5.23816 9.99998C5.23816 13.5504 8.22293 16.4286 11.9048 16.4286ZM11.5785 12.7187V13.256H12.0847V12.7191C12.4929 12.7029 12.8489 12.6459 13.1526 12.5482C13.5188 12.4294 13.7987 12.263 13.9921 12.049C14.1876 11.8333 14.2863 11.5786 14.2884 11.2849C14.2863 11.0849 14.238 10.9075 14.1433 10.7529C14.0507 10.5982 13.9201 10.4638 13.7514 10.3497C13.5826 10.2357 13.383 10.1396 13.1526 10.0615C12.9221 9.98333 12.669 9.92083 12.3933 9.87395L12.0847 9.8179V8.65009C12.2933 8.67063 12.4662 8.71921 12.6032 8.79583C12.7904 8.90051 12.8964 9.04739 12.9211 9.23645H14.202C14.1958 8.95051 14.095 8.69895 13.8995 8.48176C13.704 8.26458 13.4304 8.09504 13.0785 7.97317C12.7883 7.87206 12.457 7.81289 12.0847 7.79566V7.25598H11.5785V7.79772C11.226 7.81728 10.905 7.87576 10.6156 7.97317C10.2534 8.09504 9.96843 8.26458 9.76061 8.48176C9.55485 8.69895 9.453 8.95286 9.45506 9.24348C9.453 9.59817 9.60629 9.8802 9.91493 10.0896C10.2236 10.299 10.6444 10.4529 11.1773 10.5513L11.5785 10.6278V11.8627C11.4423 11.8505 11.3158 11.8274 11.1989 11.7935C11.0178 11.7388 10.8728 11.6583 10.7637 11.5521C10.6567 11.4443 10.596 11.3099 10.5816 11.149H9.28839C9.29868 11.4943 9.40876 11.7841 9.61864 12.0185C9.83057 12.2513 10.1248 12.4271 10.5014 12.5458C10.8152 12.6443 11.1742 12.7019 11.5785 12.7187ZM12.0847 11.8603C12.203 11.8482 12.311 11.8275 12.4088 11.7982C12.5775 11.7482 12.7081 11.6786 12.8007 11.5896C12.8933 11.5005 12.9396 11.3982 12.9396 11.2825C12.9396 11.1747 12.8974 11.0841 12.8131 11.0107C12.7308 10.9372 12.6094 10.8747 12.4489 10.8232C12.3434 10.7889 12.222 10.7566 12.0847 10.7264V11.8603ZM11.5785 9.72183V8.65178C11.4708 8.66326 11.3741 8.68237 11.2884 8.70911C11.1382 8.75442 11.023 8.8177 10.9427 8.89895C10.8645 8.9802 10.8254 9.07239 10.8254 9.17551C10.8213 9.26145 10.845 9.33645 10.8964 9.40051C10.9499 9.46458 11.023 9.52004 11.1156 9.56692C11.2081 9.61223 11.3151 9.65208 11.4365 9.68645C11.4827 9.69892 11.53 9.71071 11.5785 9.72183Z" fill="#D2BD02"/>
</svg>
